{"title":"Melanie Jane - I Need A Ride - InnocentHigh","uid":10863197,"size":480959164,"categoryP":"porn","categoryS":"movie_clips","magnet":"?xt=urn:btih:42f457c9b94e5282db8c043e1f5c24e1b1e12850&amp;dn=Melanie+Jane+-+I+Need+A+Ride+-+InnocentHigh&amp;tr=udp%3A%2F%2Ftracker.openbittorrent.com%3A80&amp;tr=udp%3A%2F%2Fopen.demonii.com%3A1337&amp;tr=udp%3A%2F%2Ftracker.coppersurfer.tk%3A6969&amp;tr=udp%3A%2F%2Fexodus.desync.com%3A6969","seeders":6,"leechers":3,"uploader":"athklym","files":-1,"time":1408898214,"description":" &lt;a href=&quot;http://bayimg.com/hAppgAaFp&quot; rel=&quot;nofollow&quot; target=&quot;_NEW&quot;&gt;http://bayimg.com/hAppgAaFp&lt;/a&gt;\n\nMelanie_Jane_I_Need_A_Ride_InnocentHigh.wmv\nFormat                                   : Windows Media\nFile size                                : 459 MiB\nDuration                                 : 26mn 30s\nOverall bit rate                         : 2 419 Kbps\nMaximum Overall bit rate                 : 2 382 Kbps\nEncoded date                             : UTC 2010-02-04 04:14:59.000\n\nVideo\nID                                       : 1\nFormat                                   : VC-1\nFormat profile                           : Simple\nCodec ID                                 : WMV3\nCodec ID/Info                            : Windows Media Video 9\nCodec ID/Hint                            : WMV3\nDescription of the codec                 : Windows Media Video 9 - VBR\nDuration                                 : 26mn 30s\nBit rate                                 : 2 000 Kbps\nWidth                                    : 960 pixels\nHeight                                   : 540 pixels\nDisplay aspect ratio                     : 16:9\nFrame rate                               : 29.970 fps\nColor space                              : YUV\nChroma subsampling                       : 4:2:0\nBit depth                                : 8 bits\nScan type                                : Progressive\nCompression mode                         : Lossy\nBits/(Pixel*Frame)                       : 0.129\nStream size                              : 379 MiB (83%)\n\nAudio\nID                                       : 2\nFormat                                   : WMA\nFormat version                           : Version 2\nCodec ID                                 : 161\nCodec ID/Info                            : Windows Media Audio\nDescription of the codec                 : Windows Media Audio 9 - 128 kbps, 44 kHz, stereo CBR\nDuration                                 : 26mn 30s\nBit rate                                 : 128 Kbps\nChannel(s)                               : 2 channels\nSampling rate                            : 44.1 KHz\nBit depth                                : 16 bits\nStream size                              : 24.3 MiB (5%)\n\n","torrent":{"xt":"urn:btih:42f457c9b94e5282db8c043e1f5c24e1b1e12850","amp;dn":"Melanie+Jane+-+I+Need+A+Ride+-+InnocentHigh","amp;tr":["udp%3A%2F%2Ftracker.openbittorrent.com%3A80","udp%3A%2F%2Fopen.demonii.com%3A1337","udp%3A%2F%2Ftracker.coppersurfer.tk%3A6969","udp%3A%2F%2Fexodus.desync.com%3A6969"],"infoHash":"42f457c9b94e5282db8c043e1f5c24e1b1e12850","infoHashBuffer":{"type":"Buffer","data":[66,244,87,201,185,78,82,130,219,140,4,62,31,92,36,225,177,225,40,80]},"announce":[],"urlList":[]}}